<svg width="25" height="24" viewBox="0 0 25 24" fill="none" xmlns="http://www.w3.org/2000/svg">
<path d="M23.9399 9.71512H23.0002V9.66671H12.5002V14.3334H19.0936C18.1317 17.05 15.5469 19 12.5002 19C8.63441 19 5.50016 15.8658 5.50016 12C5.50016 8.13429 8.63441 5.00004 12.5002 5.00004C14.2846 5.00004 15.908 5.67321 17.1441 6.77279L20.444 3.47287C18.3603 1.53096 15.5732 0.333374 12.5002 0.333374C6.05725 0.333374 0.833496 5.55712 0.833496 12C0.833496 18.443 6.05725 23.6667 12.5002 23.6667C18.9431 23.6667 24.1668 18.443 24.1668 12C24.1668 11.2178 24.0863 10.4542 23.9399 9.71512Z" fill="#FFC107"/>
<path d="M2.17871 6.56979L6.01179 9.38087C7.04896 6.81304 9.56079 5.00004 12.5002 5.00004C14.2846 5.00004 15.908 5.67321 17.1441 6.77279L20.444 3.47287C18.3604 1.53096 15.5732 0.333374 12.5002 0.333374C8.01904 0.333374 4.13288 2.86329 2.17871 6.56979Z" fill="#FF3D00"/>
<path d="M12.5 23.6667C15.5135 23.6667 18.2517 22.5134 20.3219 20.638L16.7111 17.5825C15.5006 18.5036 14.0211 19.0017 12.5 19C9.46552 19 6.88894 17.0651 5.91827 14.3649L2.11377 17.2961C4.0446 21.0744 7.96577 23.6667 12.5 23.6667Z" fill="#4CAF50"/>
<path d="M23.9397 9.71504H23V9.66663H12.5V14.3333H19.0934C18.6333 15.6262 17.8045 16.756 16.7093 17.583L16.7111 17.5819L20.3219 20.6374C20.0664 20.8695 24.1667 17.8333 24.1667 12C24.1667 11.2177 24.0862 10.4541 23.9397 9.71504Z" fill="#1976D2"/>
</svg>
