<svg width="131" height="22" viewBox="0 0 131 22" fill="none" xmlns="http://www.w3.org/2000/svg">
<path fill-rule="evenodd" clip-rule="evenodd" d="M23.1054 5.87671C27.3642 5.87674 30.8168 9.3293 30.8168 13.5881C30.8168 17.8469 27.3643 21.2995 23.1054 21.2995C18.8466 21.2994 15.3941 17.8469 15.394 13.5881C15.3941 9.32932 18.8467 5.87677 23.1054 5.87671ZM26.2171 14.7478C25.7467 16.0094 24.531 16.9081 23.1054 16.9081C21.6799 16.9081 20.4644 16.0094 19.9941 14.7478H18.0869C18.6129 17.0335 20.6601 18.7379 23.1054 18.7379C25.5508 18.7379 27.5982 17.0335 28.1242 14.7478H26.2171ZM23.1054 12.8301C22.6867 12.8302 22.3472 13.1696 22.3472 13.5883C22.3473 14.007 22.6867 14.3465 23.1054 14.3466C23.5241 14.3465 23.8636 14.007 23.8636 13.5883C23.8636 13.1696 23.5242 12.8302 23.1054 12.8301ZM23.1054 8.43825C20.7473 8.4383 18.7592 10.0234 18.1487 12.1863H20.0956C20.6241 11.0536 21.773 10.2686 23.1054 10.2686C24.4378 10.2686 25.5867 11.0536 26.1152 12.1863H28.0619C27.4514 10.0235 25.4636 8.43827 23.1054 8.43825Z" fill="#0080FF"/>
<path fill-rule="evenodd" clip-rule="evenodd" d="M123.221 0.497559C124.573 0.497559 125.74 1.57021 125.74 2.9778V9.6986L130.547 17.7664L130.593 17.847C131.527 19.5435 130.22 21.5021 128.374 21.5022H114.972C113.097 21.5021 111.779 19.4808 112.8 17.7664L117.607 9.6986V2.9778C117.607 1.57022 118.773 0.497575 120.126 0.497559H123.221ZM117.372 15.0983L115.082 18.9407H128.264L125.975 15.0983H117.372ZM120.169 9.73011C120.169 10.1457 120.063 10.5524 119.863 10.9138L119.822 10.9856L118.898 12.5368H124.449L123.525 10.9856C123.299 10.6067 123.178 10.1734 123.178 9.73011V3.0591H120.169V9.73011Z" fill="#0080FF"/>
<path d="M108.687 21.2482H101.187C99.5882 21.2482 98.3833 20.0432 98.3833 18.4448V15.6169C98.3833 14.0185 99.4161 13.0595 100.941 13.0595H108.146V11.0676C108.146 10.8217 107.949 10.625 107.728 10.625H102.392C102.17 10.625 101.974 10.8217 101.974 11.0676V12.2234H98.6292V10.4774C98.6292 8.87902 99.8342 7.67407 101.433 7.67407H108.687C110.285 7.67407 111.49 8.87902 111.49 10.4774V18.4448C111.49 20.0432 110.285 21.2482 108.687 21.2482ZM108.146 17.8547V15.7644H102.146C101.924 15.7644 101.728 15.9612 101.728 16.2071V17.8547C101.728 18.1006 101.924 18.2973 102.146 18.2973H107.728C107.949 18.2973 108.146 18.1006 108.146 17.8547Z" fill="#0080FF"/>
<path d="M97.4569 21.2482H88.8501C87.3009 21.2482 85.9976 20.0186 85.9976 18.3956V1.87061H89.3911V17.7563C89.3911 18.0022 89.5878 18.1989 89.8337 18.1989H97.4569V21.2482Z" fill="#0080FF"/>
<path d="M84.1549 21.2481H80.122C78.5974 21.2481 77.3187 20.0431 77.3187 18.4447V10.6249H74.7612V7.67398H77.3187V2.11646H80.663V7.67398H84.6467V10.6249H80.663V17.8546C80.663 18.1005 80.8597 18.2972 81.0811 18.2972H84.1549V21.2481Z" fill="#0080FF"/>
<path d="M70.9086 21.2482H63.5314C62.0067 21.2482 60.728 20.0432 60.728 18.4448V10.4774C60.728 8.87902 62.0067 7.67407 63.5314 7.67407H71.1545C72.6792 7.67407 73.9579 8.87902 73.9579 10.4774V13.4529C73.9579 15.0513 72.9251 16.0104 71.4004 16.0104H64.0724V17.8547C64.0724 18.1006 64.2691 18.2973 64.4904 18.2973H69.9496C70.1709 18.2973 70.3676 18.1006 70.3676 17.8547V16.8464H73.712V18.4448C73.712 20.0432 72.4332 21.2482 70.9086 21.2482ZM70.6135 12.8627V11.0676C70.6135 10.8217 70.4168 10.625 70.1955 10.625H64.4904C64.2691 10.625 64.0724 10.8217 64.0724 11.0676V13.3054H70.1955C70.4168 13.3054 70.6135 13.1086 70.6135 12.8627Z" fill="#0080FF"/>
<path d="M60.9294 21.248H56.8719L52.1505 15.0757L50.7242 16.4528V21.248H47.3799V1.00977H50.7242V12.4445L55.5932 7.67387H59.7982L54.3391 12.9609L60.9294 21.248Z" fill="#0080FF"/>
<path d="M42.6683 21.2482H35.1681C33.6435 21.2482 32.3647 20.0432 32.3647 18.4448V10.4774C32.3647 8.87902 33.6435 7.67407 35.1681 7.67407H42.6683C44.1929 7.67407 45.4716 8.87902 45.4716 10.4774V12.789H42.1273V11.0676C42.1273 10.8217 41.9306 10.625 41.7092 10.625H36.1271C35.9058 10.625 35.7091 10.8217 35.7091 11.0676V17.8547C35.7091 18.1006 35.9058 18.2973 36.1271 18.2973H41.7092C41.9306 18.2973 42.1273 18.1006 42.1273 17.8547V16.0104H45.4716V18.4448C45.4716 20.0432 44.1929 21.2482 42.6683 21.2482Z" fill="#0080FF"/>
<path d="M11.7298 14.6086H3.39353V21.2482H0V1.87061H11.7298C13.279 1.87061 14.5823 3.10015 14.5823 4.72314V11.7561C14.5823 13.3791 13.279 14.6086 11.7298 14.6086ZM11.1888 11.1167V5.3625C11.1888 5.11659 10.9921 4.91986 10.7462 4.91986H3.39353V11.5594H10.7462C10.9921 11.5594 11.1888 11.3627 11.1888 11.1167Z" fill="#0080FF"/>
</svg>
