<svg width="18" height="18" viewBox="0 0 18 18" fill="none" xmlns="http://www.w3.org/2000/svg">
<path d="M8.61444 6.38445C9.38978 7.58216 10.4171 8.60232 11.6281 9.37078L6.85663 14.1432C6.43158 14.5683 6.21831 14.7808 5.95722 14.9206C5.76146 15.0253 5.54697 15.0851 5.20331 15.1579L4.81268 15.237L2.98554 15.6032C2.65293 15.6697 2.48639 15.7027 2.39179 15.6081C2.29719 15.5135 2.33015 15.3469 2.39667 15.0143L2.76288 13.1872C2.88068 12.5982 2.93968 12.3036 3.07929 12.0427C3.21902 11.7816 3.43157 11.5683 3.85663 11.1432L8.61444 6.38445ZM11.4045 3.59832C12.1672 2.90499 13.3321 2.90512 14.0949 3.59832L14.2502 3.74968C14.3298 3.82931 14.3695 3.8697 14.4016 3.90496C15.0948 4.66778 15.0949 5.83263 14.4016 6.59539L14.2502 6.74968L13.0861 7.91277C11.824 7.20925 10.7817 6.17568 10.0685 4.93035L11.2502 3.74968C11.3296 3.67025 11.3693 3.63032 11.4045 3.59832Z" fill="white"/>
</svg>
